<?xml version="1.0" encoding="UTF-8"?>
<svg version="1.1" xmlns="http://www.w3.org/2000/svg" width="626" height="626">
<path d="M0 0 C206.58 0 413.16 0 626 0 C626 206.58 626 413.16 626 626 C419.42 626 212.84 626 0 626 C0 419.42 0 212.84 0 0 Z " fill="#FEFEFE" transform="translate(0,0)"/>
<path d="M0 0 C1.68834177 -0.00514872 3.37667814 -0.01243714 5.06500244 -0.02168274 C9.6167436 -0.04008237 14.1678935 -0.02733165 18.7196095 -0.00759244 C23.50171329 0.00888783 28.28378239 -0.00003168 33.06590271 -0.00511169 C41.0926957 -0.00962178 49.11925484 0.00617082 57.14599609 0.03417969 C66.40402888 0.06623755 75.66164034 0.06620802 84.91970307 0.04896492 C93.855696 0.03306006 102.79153561 0.03985811 111.7275219 0.05690193 C115.51714131 0.0637446 119.3066368 0.06276878 123.09625435 0.05535698 C127.56411587 0.0476533 132.03150215 0.05995239 136.49928284 0.08720589 C138.13140389 0.09404781 139.76356969 0.09423313 141.39568901 0.08699036 C153.94492288 0.03774925 165.56748361 1.37359874 174.93139648 10.63110352 C183.70693561 21.62291401 182.94591954 35.24634451 181.93139648 48.63110352 C181.13407855 52.71681923 179.99057391 56.02585516 177.93139648 59.63110352 C177.56916992 60.29883789 177.20694336 60.96657227 176.83374023 61.65454102 C172.45645525 68.6878735 164.76538487 72.53669167 156.93139648 74.63110352 C153.01880793 75.02091653 149.14134115 74.98187483 145.21264648 74.92407227 C144.11416382 74.91982742 143.01568115 74.91558258 141.88391113 74.91120911 C138.39948288 74.89451012 134.91564787 74.85687348 131.43139648 74.81860352 C129.05900905 74.80354536 126.68661248 74.78985894 124.31420898 74.77758789 C118.51952959 74.74719622 112.72612163 74.688456 106.93139648 74.63110352 C106.93139648 85.85110352 106.93139648 97.07110352 106.93139648 108.63110352 C76.66112621 124.63110352 76.66112621 124.63110352 73.93139648 124.63110352 C73.93139648 97.24110352 73.93139648 69.85110352 73.93139648 41.63110352 C98.35139648 41.30110352 122.77139648 40.97110352 147.93139648 40.63110352 C147.93139648 38.65110352 147.93139648 36.67110352 147.93139648 34.63110352 C147.17099564 34.66964951 146.41059479 34.7081955 145.62715149 34.74790955 C138.40494041 35.09303019 131.19175127 35.32380667 123.96241474 35.43163204 C120.24570336 35.49096386 116.54054091 35.59180467 112.82861328 35.79345703 C88.8278282 37.05481738 88.8278282 37.05481738 82.30828857 31.32623291 C78.01777736 25.76091022 75.23935406 19.67041603 72.95256042 13.05226135 C71.92372972 10.61292579 70.9273048 9.33166462 68.93139648 7.63110352 C68.65811523 8.34911133 68.38483398 9.06711914 68.10327148 9.80688477 C66.9471176 12.59321563 65.63362202 15.1757092 64.18139648 17.81860352 C63.71217773 18.6784082 63.24295898 19.53821289 62.75952148 20.42407227 C62.15624023 21.48239258 61.55295898 22.54071289 60.93139648 23.63110352 C60.44336044 24.84814217 60.44336044 24.84814217 59.94546509 26.08976746 C58.55525455 29.10330405 57.26574349 31.25767571 54.93139648 33.63110352 C50.18535881 35.09915878 45.48370661 34.93879828 40.56420898 34.82641602 C39.16029043 34.83020671 37.75637747 34.83840145 36.35250854 34.85079956 C32.67221439 34.87154816 28.99490061 34.83278303 25.31500244 34.78131104 C21.55428736 34.739339 17.7938322 34.75406365 14.03295898 34.76391602 C6.66486668 34.77491249 -0.70099953 34.72299656 -8.06860352 34.63110352 C-8.06860352 36.61110352 -8.06860352 38.59110352 -8.06860352 40.63110352 C-6.11809082 40.64512207 -6.11809082 40.64512207 -4.12817383 40.65942383 C0.74764879 40.6996314 5.62286064 40.76547274 10.49829102 40.83862305 C12.59879647 40.86665556 14.69940393 40.88795717 16.80004883 40.90209961 C46.49751234 41.11392175 46.49751234 41.11392175 56.51342773 51.22875977 C64.48113861 60.04946158 66.38871833 69.35340188 66.17749023 80.97094727 C65.46688672 91.53976463 62.83742583 101.33753944 55.44311523 109.21704102 C45.75862329 117.14727015 32.42444963 117.19496649 20.56811523 117.02172852 C19.03970591 117.01424625 17.51128683 117.00856274 15.98286438 117.00457764 C12.00595501 116.98947704 8.02965213 116.95033516 4.05297852 116.90576172 C-0.02327272 116.8644677 -4.09962423 116.8464946 -8.17602539 116.82641602 C-16.14049303 116.78382116 -24.10447233 116.71576551 -32.06860352 116.63110352 C-34.13535556 113.00851249 -36.19620336 109.38259441 -38.25610352 105.75610352 C-38.83424805 104.74290039 -39.41239258 103.72969727 -40.00805664 102.68579102 C-43.56031624 96.42418087 -46.92676974 90.1087225 -50.06860352 83.63110352 C-48.54977318 83.61564232 -48.54977318 83.61564232 -47.0002594 83.59986877 C-37.47916347 83.50230616 -27.95813541 83.3995888 -18.43715 83.29176426 C-13.54178227 83.23649186 -8.64640862 83.1830651 -3.75097656 83.13378906 C0.96932925 83.086209 5.68956002 83.03386877 10.40977669 82.97816277 C12.21476446 82.9577103 14.01977283 82.93900211 15.82479668 82.9220295 C18.34404865 82.89804922 20.86315746 82.8679864 23.38232422 82.83642578 C24.13613876 82.83067032 24.88995331 82.82491486 25.66661072 82.81898499 C29.0884157 83.07253221 29.0884157 83.07253221 31.93139648 81.63110352 C32.09806315 79.13110352 32.09806315 79.13110352 31.93139648 76.63110352 C30.36955697 75.069264 28.84892194 75.49870526 26.67797852 75.48925781 C25.77258331 75.48222336 24.86718811 75.4751889 23.93435669 75.46794128 C22.45175858 75.46169487 22.45175858 75.46169487 20.93920898 75.45532227 C18.85065753 75.43209819 16.76211586 75.40797986 14.67358398 75.38305664 C11.37794706 75.3481266 8.08266358 75.31871139 4.78686523 75.30517578 C1.6080387 75.28956032 -1.56974493 75.24923501 -4.74829102 75.20532227 C-5.71644745 75.20723068 -6.68460388 75.2091391 -7.68209839 75.21110535 C-18.08211138 75.02805179 -26.67377584 72.02299092 -34.19360352 64.77172852 C-43.07004919 54.63778637 -42.95125769 40.83859775 -42.30249023 28.09643555 C-41.52349591 19.88528242 -37.70075949 12.83699459 -31.49606991 7.44773006 C-21.86094246 0.23715513 -11.50088365 -0.08987486 0 0 Z " fill="#02034E" transform="translate(247.068603515625,250.368896484375)"/>
<path d="M0 0 C22.3663798 -0.09355962 44.7327272 -0.16403617 67.09926319 -0.20724869 C77.48510605 -0.22784887 87.87082712 -0.25592076 98.2565918 -0.30175781 C107.31183716 -0.34170353 116.36699429 -0.3674513 125.42232531 -0.37635398 C130.21435294 -0.38155564 135.0061282 -0.39372821 139.79807472 -0.42292023 C144.31493175 -0.45021167 148.83143413 -0.45841742 153.34836578 -0.45243073 C154.99986134 -0.45352485 156.65136962 -0.46139664 158.3027935 -0.4768219 C170.20399597 -0.58246774 180.70138071 0.50732201 190.28125 8.30078125 C197.37738442 15.31627778 199.23324414 23.56965373 199.38012695 33.23632812 C199.34925145 51.38524501 199.34925145 51.38524501 195 59 C194.63777344 59.66773438 194.27554688 60.33546875 193.90234375 61.0234375 C189.52505876 68.05676999 181.83398838 71.90558816 174 74 C170.08741144 74.38981302 166.20994467 74.35077132 162.28125 74.29296875 C161.18276733 74.28872391 160.08428467 74.28447906 158.95251465 74.28010559 C155.4680864 74.26340661 151.98425139 74.22576996 148.5 74.1875 C146.12761256 74.17244185 143.75521599 74.15875543 141.3828125 74.14648438 C135.5881331 74.1160927 129.79472515 74.05735248 124 74 C124 85.22 124 96.44 124 108 C93.72972973 124 93.72972973 124 91 124 C91 96.61 91 69.22 91 41 C115.42 40.67 139.84 40.34 165 40 C165 38.02 165 36.04 165 34 C164.23959915 34.03854599 163.4791983 34.07709198 162.695755 34.11680603 C155.47354392 34.46192668 148.26035478 34.69270316 141.03101826 34.80052853 C137.31430688 34.85986035 133.60914443 34.96070116 129.8972168 35.16235352 C105.89643171 36.42371387 105.89643171 36.42371387 99.37689209 30.69512939 C95.08638087 25.12980671 92.30795757 19.03931252 90.02116394 12.42115784 C88.99233324 9.98182227 87.99590831 8.70056111 86 7 C85.71125 7.78375 85.4225 8.5675 85.125 9.375 C84 12 84 12 82 14 C82 11.69 82 9.38 82 7 C82.66 7 83.32 7 84 7 C84 6.34 84 5.68 84 5 C91.92 4.505 91.92 4.505 100 4 C98.10765625 3.97494385 96.2153125 3.9498877 94.265625 3.92407227 C87.86361386 3.83862022 81.46164385 3.75046817 75.05969238 3.66066074 C71.19541185 3.60654342 67.3311242 3.55336113 63.46679688 3.50268555 C42.30176026 3.22425031 21.15415722 2.74087023 0 2 C0 1.34 0 0.68 0 0 Z " fill="#03031D" transform="translate(230,251)"/>
<path d="M0 0 C23.76 0 47.52 0 72 0 C72 0.33 72 0.66 72 1 C48.57 1 25.14 1 1 1 C2.092183 2.31747011 2.092183 2.31747011 4.77772522 2.12025452 C6.63970802 2.1169236 6.63970802 2.1169236 8.53930664 2.11352539 C9.22220261 2.11367142 9.90509857 2.11381744 10.60868835 2.1139679 C12.87587614 2.11326876 15.14298274 2.1054764 17.41015625 2.09765625 C18.97814387 2.09579207 20.54613207 2.09436817 22.11412048 2.09336853 C26.24876503 2.08954334 30.38337466 2.07971306 34.51800537 2.06866455 C38.73400398 2.05845044 42.95000822 2.05387091 47.16601562 2.04882812 C55.44402647 2.03809079 63.7220089 2.02101436 72 2 C72 2.33 72 2.66 72 3 C49.23 3 26.46 3 3 3 C3 28.08 3 53.16 3 79 C4.65 79 6.3 79 8 79 C5.16604069 81.32789515 3.70488428 82.07377893 0 83 C0 55.61 0 28.22 0 0 Z " fill="#3F3E4D" transform="translate(321,292)"/>
<path d="M0 0 C6.04650192 -0.09972662 12.09251309 -0.17187016 18.13964844 -0.21972656 C20.19181674 -0.23970057 22.24392917 -0.26688947 24.29589844 -0.30175781 C51.4975654 -0.75202883 51.4975654 -0.75202883 62 8 C65.21778933 11.31883103 68.30483555 14.64100571 70 19 C69.505 20.485 69.505 20.485 69 22 C66 18.25 66 18.25 66 16 C65.34 16 64.68 16 64 16 C64 14.68 64 13.36 64 12 C63.030625 11.7525 62.06125 11.505 61.0625 11.25 C59.5465625 10.63125 59.5465625 10.63125 58 10 C57.30859375 7.921875 57.30859375 7.921875 57 6 C56.38511719 5.93941406 55.77023437 5.87882812 55.13671875 5.81640625 C53.92435547 5.69072266 53.92435547 5.69072266 52.6875 5.5625 C51.88699219 5.48128906 51.08648437 5.40007812 50.26171875 5.31640625 C48 5 48 5 45 4 C43.51229395 3.88624128 42.02032676 3.82392798 40.52856445 3.79467773 C39.62785721 3.77473251 38.72714996 3.75478729 37.79914856 3.73423767 C36.83031235 3.71752518 35.86147614 3.70081268 34.86328125 3.68359375 C33.86870407 3.66281265 32.87412689 3.64203156 31.84941101 3.62062073 C28.67051133 3.55520588 25.49152866 3.4962776 22.3125 3.4375 C20.15819452 3.39430712 18.00389746 3.35069258 15.84960938 3.30664062 C10.56649412 3.19953274 5.28329621 3.09775127 0 3 C0 2.01 0 1.02 0 0 Z " fill="#242757" transform="translate(240,292)"/>
<path d="M0 0 C0.66 0 1.32 0 2 0 C2.33 22.44 2.66 44.88 3 68 C6.79999673 67.16710487 6.79999673 67.16710487 9.4375 65.9375 C12.14244935 64.94788438 14.14541159 64.83688066 17 65 C11.20043163 69.68426676 7.6660098 71 0 71 C0 47.57 0 24.14 0 0 Z " fill="#070038" transform="translate(324,300)"/>
<path d="M0 0 C3.86898937 5.80348405 2.43354715 13.77207753 1.53515625 20.4609375 C-0.19585142 29.08524793 -3.18525758 37.40566622 -10.375 42.9375 C-17.4175912 47.27734238 -22.81195491 48.57316607 -31 47 C-31 46.67 -31 46.34 -31 46 C-30.31035156 45.99742187 -29.62070312 45.99484375 -28.91015625 45.9921875 C-21.5030856 45.68736978 -16.60806432 43.91683779 -11 39 C-10.67 38.34 -10.34 37.68 -10 37 C-9.34 36.195625 -8.68 35.39125 -8 34.5625 C-5.8470455 32.09848623 -5.8470455 32.09848623 -5 29 C-4.01 29 -3.02 29 -2 29 C-1.97494385 28.15703369 -1.9498877 27.31406738 -1.92407227 26.44555664 C-1.82911845 23.32758326 -1.72987552 20.20978497 -1.62768555 17.09204102 C-1.58428777 15.74085853 -1.5426163 14.38961947 -1.50268555 13.03833008 C-1.44510048 11.09963299 -1.38085702 9.16113724 -1.31640625 7.22265625 C-1.27974854 6.05484619 -1.24309082 4.88703613 -1.20532227 3.68383789 C-1 1 -1 1 0 0 Z " fill="#181A34" transform="translate(311,318)"/>
<path d="M0 0 C26.07 0 52.14 0 79 0 C79 0.33 79 0.66 79 1 C41.38 1.495 41.38 1.495 3 2 C4.32 4.64 5.64 7.28 7 10 C7.33 10.66 7.66 11.32 8 12 C6.1875 11.8125 6.1875 11.8125 4 11 C1.06849542 7.19990147 0.83336268 5.00017607 0 0 Z " fill="#211764" transform="translate(199,335)"/>
<path d="M0 0 C0.90879892 2.9844923 1.01401768 5.18927652 0.5546875 8.265625 C0.44769531 9.07386719 0.34070313 9.88210938 0.23046875 10.71484375 C-0.00451645 12.39072722 -0.24914922 14.06528923 -0.50390625 15.73828125 C-1.26578436 21.67340579 -0.54607363 25.61500876 2 31 C2.50853516 32.27423828 2.50853516 32.27423828 3.02734375 33.57421875 C4.89089314 37.90117248 6.8038764 41.46143459 10 45 C6.93984654 44.77332197 5.80841417 43.82757275 3.5 41.75 C-4.32514596 31.40530239 -3.52606689 18.34299325 -3.29052734 6.06201172 C-2.92863957 3.49352083 -1.84192564 1.84192564 0 0 Z " fill="#0E0D46" transform="translate(208,272)"/>
<path d="M0 0 C1.125 1.75 1.125 1.75 2 4 C1.34 5.32 0.68 6.64 0 8 C-26.4 8 -52.8 8 -80 8 C-80.33 8.99 -80.66 9.98 -81 11 C-81.66 9.35 -82.32 7.7 -83 6 C-42.905 5.505 -42.905 5.505 -2 5 C-1.34 3.35 -0.68 1.7 0 0 Z " fill="#080147" transform="translate(280,328)"/>
<path d="M0 0 C0.89976562 0.28004883 1.79953125 0.56009766 2.7265625 0.84863281 C14.48664117 4.26969703 25.81543882 4.66019264 38 4.75 C39.95054637 4.77823586 41.90106887 4.80817353 43.8515625 4.83984375 C48.56766414 4.91279109 53.28348568 4.96291244 58 5 C58 5.33 58 5.66 58 6 C51.65113431 6.24631493 45.30175988 6.45811102 38.95092773 6.64697266 C36.79474376 6.715044 34.63878576 6.79075004 32.4831543 6.87451172 C29.36797121 6.99418781 26.25298354 7.08553968 23.13671875 7.171875 C22.18729904 7.21439392 21.23787933 7.25691284 20.25968933 7.30072021 C13.37942922 7.45268529 7.10038711 6.35555002 1 3 C0.67 2.01 0.34 1.02 0 0 Z " fill="#212264" transform="translate(219,318)"/>
<path d="M0 0 C0.66 0.33 1.32 0.66 2 1 C2.66 3.31 3.32 5.62 4 8 C23.8 8 43.6 8 64 8 C64 8.33 64 8.66 64 9 C43.87 9.33 23.74 9.66 3 10 C1.68 7.36 0.36 4.72 -1 2 C-0.67 1.34 -0.34 0.68 0 0 Z " fill="#130F65" transform="translate(212,357)"/>
<path d="M0 0 C0.5775 0.37125 1.155 0.7425 1.75 1.125 C0.43 1.455 -0.89 1.785 -2.25 2.125 C-2.25 2.785 -2.25 3.445 -2.25 4.125 C-2.806875 4.351875 -3.36375 4.57875 -3.9375 4.8125 C-6.44910049 6.10249299 -6.44910049 6.10249299 -8.75 8.625 C-11.25 11.125 -11.25 11.125 -13.5 12.1875 C-15.47094022 12.9903367 -15.47094022 12.9903367 -16 15.25 C-16.0825 15.86875 -16.165 16.4875 -16.25 17.125 C-17.24 16.795 -18.23 16.465 -19.25 16.125 C-16.18675659 10.45505426 -7.7182291 -3.00153354 0 0 Z " fill="#150F5B" transform="translate(226.25,253.875)"/>
<path d="M0 0 C-0.66 0 -1.32 0 -2 0 C-2 0.66 -2 1.32 -2 2 C-7.52357122 3.19395972 -12.8196513 3.03799506 -18.4296875 2.87890625 C-19.42001984 2.85529526 -20.41035217 2.83168427 -21.43069458 2.80735779 C-24.57895525 2.7310767 -27.72694757 2.64690012 -30.875 2.5625 C-33.01561208 2.5092437 -35.15623707 2.45650356 -37.296875 2.40429688 C-42.5314143 2.27550997 -47.76575592 2.14024828 -53 2 C-53 1.67 -53 1.34 -53 1 C-52.44733963 0.98969254 -51.89467926 0.97938507 -51.32527161 0.96876526 C-45.56626091 0.86047301 -39.8073995 0.74589397 -34.04858398 0.62768555 C-31.9001783 0.58440948 -29.75173985 0.54272927 -27.60327148 0.50268555 C-24.51275768 0.4448054 -21.4224077 0.38116208 -18.33203125 0.31640625 C-17.37351761 0.29969376 -16.41500397 0.28298126 -15.42744446 0.26576233 C-14.52688828 0.24581711 -13.62633209 0.22587189 -12.69848633 0.20532227 C-11.91016922 0.18977798 -11.12185211 0.1742337 -10.30964661 0.15821838 C-7.9329941 0.05277555 -7.9329941 0.05277555 -5.3938446 -0.57533264 C-3 -1 -3 -1 0 0 Z " fill="#252233" transform="translate(408,322)"/>
<path d="M0 0 C5.94771235 1.30559539 9.22921762 4.44086765 13 9 C15 12.25 15 12.25 16 15 C15.67 15.99 15.34 16.98 15 18 C12 14.25 12 14.25 12 12 C11.34 12 10.68 12 10 12 C10 10.68 10 9.36 10 8 C9.030625 7.7525 8.06125 7.505 7.0625 7.25 C6.051875 6.8375 5.04125 6.425 4 6 C3.125 3.875 3.125 3.875 3 2 C1.68 1.67 0.36 1.34 -1 1 C-0.67 0.67 -0.34 0.34 0 0 Z " fill="#101131" transform="translate(294,296)"/>
<path d="M0 0 C7.64570778 0.24663573 12.88756565 2.35501208 19 7 C19.99 8.485 19.99 8.485 21 10 C18 10 18 10 15.875 8.1875 C10.98223288 4.46474241 5.03015933 2.97260634 -1 2 C-0.67 1.34 -0.34 0.68 0 0 Z " fill="#151519" transform="translate(401,252)"/>
<path d="M0 0 C0.92321855 3.03905386 1.02162761 5.39994788 0.66015625 8.546875 C0.56669922 9.39121094 0.47324219 10.23554688 0.37695312 11.10546875 C0.27318359 11.97816406 0.16941406 12.85085938 0.0625 13.75 C-0.03740234 14.63816406 -0.13730469 15.52632813 -0.24023438 16.44140625 C-0.48715401 18.62840871 -0.74061635 20.81444667 -1 23 C-1.33 23 -1.66 23 -2 23 C-2.22595954 19.89685213 -2.42770896 16.79259193 -2.625 13.6875 C-2.68945312 12.80642578 -2.75390625 11.92535156 -2.8203125 11.01757812 C-2.871875 10.17001953 -2.9234375 9.32246094 -2.9765625 8.44921875 C-3.02893066 7.66893311 -3.08129883 6.88864746 -3.13525391 6.0847168 C-2.96318636 3.43257824 -1.88070102 1.88070102 0 0 Z " fill="#2D2A7C" transform="translate(208,272)"/>
<path d="M0 0 C1.5 1.375 1.5 1.375 3 3 C3 3.66 3 4.32 3 5 C3.66 5 4.32 5 5 5 C6.32 8.3 7.64 11.6 9 15 C8.01 15.495 8.01 15.495 7 16 C5.82268014 14.0898586 4.65848895 12.17162056 3.5 10.25 C2.8503125 9.18265625 2.200625 8.1153125 1.53125 7.015625 C0 4 0 4 0 0 Z " fill="#16162A" transform="translate(321,261)"/>
<path d="M0 0 C1.88077284 3.76154568 1.22802645 8.29823274 1.25 12.4375 C1.270625 13.40494141 1.29125 14.37238281 1.3125 15.36914062 C1.31765625 16.29791016 1.3228125 17.22667969 1.328125 18.18359375 C1.3374707 19.03493896 1.34681641 19.88628418 1.35644531 20.76342773 C0.92817778 23.45065986 0.07920956 24.31501681 -2 26 C-1.86186975 21.85387186 -1.71321141 17.70818838 -1.5625 13.5625 C-1.52318359 12.37849609 -1.48386719 11.19449219 -1.44335938 9.97460938 C-1.40146484 8.84990234 -1.35957031 7.72519531 -1.31640625 6.56640625 C-1.27974854 5.52427979 -1.24309082 4.48215332 -1.20532227 3.40844727 C-1 1 -1 1 0 0 Z " fill="#161736" transform="translate(311,318)"/>
<path d="M0 0 C-0.33 0.99 -0.66 1.98 -1 3 C-5.29 2.01 -9.58 1.02 -14 0 C-14 -0.33 -14 -0.66 -14 -1 C-8.65998179 -2.33500455 -5.16044765 -1.512545 0 0 Z " fill="#171844" transform="translate(294,295)"/>
<path d="M0 0 C2.99357002 1.49678501 3.55176584 4.0285712 4.90234375 6.9921875 C6.03293787 9.06024934 7.26174199 10.42516796 9 12 C5.61917938 11.74956884 4.7185873 10.7185873 2.25 8.25 C-0.01128327 4.98370194 -0.56337087 3.8309219 0 0 Z " fill="#151455" transform="translate(209,305)"/>
<path d="M0 0 C1.65 0 3.3 0 5 0 C4.67 0.66 4.34 1.32 4 2 C3.34 2 2.68 2 2 2 C1.71125 2.78375 1.4225 3.5675 1.125 4.375 C0 7 0 7 -2 9 C-2 6.69 -2 4.38 -2 2 C-1.34 2 -0.68 2 0 2 C0 1.34 0 0.68 0 0 Z " fill="#070A28" transform="translate(314,256)"/>
<path d="M0 0 C-3.41016497 2.86453858 -6.90694544 4.34703566 -11 6 C-10.8125 4.125 -10.8125 4.125 -10 2 C-6.62176024 0.12320013 -3.82367701 -0.21849583 0 0 Z " fill="#1F1E37" transform="translate(341,365)"/>
<path d="M0 0 C2.54288247 1.27144124 2.85625863 2.4011826 4.0625 4.9375 C4.40410156 5.64777344 4.74570313 6.35804688 5.09765625 7.08984375 C5.39542969 7.72019531 5.69320312 8.35054688 6 9 C6.33 9.66 6.66 10.32 7 11 C5.1875 10.8125 5.1875 10.8125 3 10 C0.37665094 6.62712264 -0.36372697 4.24348127 0 0 Z " fill="#17166B" transform="translate(200,336)"/>
<path d="M0 0 C0.53625 0.391875 1.0725 0.78375 1.625 1.1875 C0.305 1.5175 -1.015 1.8475 -2.375 2.1875 C-2.375 2.8475 -2.375 3.5075 -2.375 4.1875 C-4.355 4.5175 -6.335 4.8475 -8.375 5.1875 C-8.375 4.1975 -8.375 3.2075 -8.375 2.1875 C-2.95961538 -1.0125 -2.95961538 -1.0125 0 0 Z " fill="#1B185D" transform="translate(226.375,253.8125)"/>
<path d="M0 0 C0.66 0 1.32 0 2 0 C3.32 2.64 4.64 5.28 6 8 C5.34 8.66 4.68 9.32 4 10 C0 3.375 0 3.375 0 0 Z " fill="#12115F" transform="translate(206,348)"/>
<path d="M0 0 C3.3 0.99 6.6 1.98 10 3 C10 3.66 10 4.32 10 5 C3.375 4.25 3.375 4.25 0 2 C0 1.34 0 0.68 0 0 Z " fill="#181757" transform="translate(219,318)"/>
<path d="M0 0 C0.99 0.33 1.98 0.66 3 1 C3.6875 3.0625 3.6875 3.0625 4 5 C2.824375 5.2165625 2.824375 5.2165625 1.625 5.4375 C-0.96421018 5.87798925 -0.96421018 5.87798925 -3 7 C-1.125 2.25 -1.125 2.25 0 0 Z " fill="#D5D6DD" transform="translate(316,258)"/>
<path d="M0 0 C2 1 2 1 3.1875 3.3125 C4.05767095 6.19075776 3.83763812 7.21381365 3 10 C2.30289269 8.71349294 1.61757124 7.42059335 0.9375 6.125 C0.36322266 5.04605469 0.36322266 5.04605469 -0.22265625 3.9453125 C-0.47917969 3.30335938 -0.73570312 2.66140625 -1 2 C-0.67 1.34 -0.34 0.68 0 0 Z " fill="#171856" transform="translate(212,357)"/>
<path d="M0 0 C1.875 0.25 1.875 0.25 4 1 C5.3125 2.875 5.3125 2.875 6 5 C5.67 5.99 5.34 6.98 5 8 C2 4.25 2 4.25 2 2 C1.34 2 0.68 2 0 2 C0 1.34 0 0.68 0 0 Z " fill="#080A25" transform="translate(304,306)"/>
<path d="M0 0 C0.98120464 3.05263664 0.98120464 4.94736336 0 8 C-0.66 8 -1.32 8 -2 8 C-2 5.69 -2 3.38 -2 1 C-1.34 0.67 -0.68 0.34 0 0 Z " fill="#201670" transform="translate(208,272)"/>
<path d="M0 0 C0.99 0.33 1.98 0.66 3 1 C1.69593116 3.01920337 0.36176581 5.01924973 -1 7 C-1.33 7 -1.66 7 -2 7 C-2 5.35 -2 3.7 -2 2 C-1.34 2 -0.68 2 0 2 C0 1.34 0 0.68 0 0 Z " fill="#161831" transform="translate(308,268)"/>
</svg>
